<svg width="3501" height="3800" viewBox="0 0 3501 3800" fill="none" xmlns="http://www.w3.org/2000/svg">
<path fill-rule="evenodd" clip-rule="evenodd" d="M0.5 0H3500.5V3800H0.5V0ZM202.346 232.71C202.346 197.134 215.644 164.664 237.54 140H446.551C468.448 164.664 481.746 197.134 481.746 232.71C481.746 268.286 468.448 300.756 446.551 325.42H237.54C215.644 300.756 202.346 268.286 202.346 232.71ZM237.54 614.98C215.644 639.645 202.346 672.114 202.346 707.69C202.346 743.266 215.644 775.736 237.541 800.4H446.551C468.448 775.736 481.746 743.266 481.746 707.69C481.746 672.114 468.448 639.645 446.551 614.98H237.54ZM202.346 1182.67C202.346 1147.09 215.644 1114.62 237.54 1089.96H446.551C468.448 1114.62 481.746 1147.09 481.746 1182.67C481.746 1218.25 468.447 1250.72 446.55 1275.38H237.541C215.644 1250.72 202.346 1218.25 202.346 1182.67ZM237.54 3464.86C215.644 3489.52 202.346 3521.99 202.346 3557.57C202.346 3593.15 215.644 3625.62 237.541 3650.28H446.55C468.447 3625.62 481.746 3593.15 481.746 3557.57C481.746 3521.99 468.448 3489.52 446.551 3464.86H237.54ZM202.346 3082.59C202.346 3047.01 215.644 3014.54 237.54 2989.88H446.551C468.448 3014.54 481.746 3047.01 481.746 3082.59C481.746 3118.17 468.448 3150.64 446.551 3175.3H237.54C215.644 3150.64 202.346 3118.17 202.346 3082.59ZM237.541 2514.9C215.644 2539.56 202.346 2572.03 202.346 2607.61C202.346 2643.19 215.644 2675.66 237.54 2700.32H446.552C468.448 2675.66 481.746 2643.19 481.746 2607.61C481.746 2572.03 468.448 2539.56 446.551 2514.9H237.541ZM202.346 2132.63C202.346 2097.05 215.644 2064.58 237.54 2039.92H446.551C468.448 2064.58 481.746 2097.05 481.746 2132.63C481.746 2168.21 468.448 2200.68 446.552 2225.34H237.54C215.644 2200.68 202.346 2168.21 202.346 2132.63ZM237.54 1564.94C215.644 1589.6 202.346 1622.07 202.346 1657.65C202.346 1693.23 215.643 1725.69 237.539 1750.36H446.552C468.448 1725.69 481.746 1693.23 481.746 1657.65C481.746 1622.07 468.448 1589.6 446.551 1564.94H237.54ZM3019.25 232.71C3019.25 197.134 3032.55 164.664 3054.44 140H3263.46C3285.35 164.664 3298.65 197.134 3298.65 232.71C3298.65 268.286 3285.35 300.756 3263.46 325.42H3054.44C3032.55 300.756 3019.25 268.286 3019.25 232.71ZM3054.44 614.98C3032.55 639.644 3019.25 672.114 3019.25 707.69C3019.25 743.266 3032.55 775.736 3054.44 800.4H3263.46C3285.35 775.736 3298.65 743.266 3298.65 707.69C3298.65 672.114 3285.35 639.644 3263.46 614.98H3054.44ZM3019.25 1182.67C3019.25 1147.09 3032.55 1114.62 3054.44 1089.96H3263.46C3285.35 1114.62 3298.65 1147.09 3298.65 1182.67C3298.65 1218.25 3285.35 1250.72 3263.45 1275.38H3054.45C3032.55 1250.72 3019.25 1218.25 3019.25 1182.67ZM3054.44 3464.86C3032.55 3489.52 3019.25 3521.99 3019.25 3557.57C3019.25 3593.15 3032.55 3625.62 3054.45 3650.28H3263.45C3285.35 3625.62 3298.65 3593.15 3298.65 3557.57C3298.65 3521.99 3285.35 3489.52 3263.46 3464.86H3054.44ZM3019.25 3082.59C3019.25 3047.01 3032.55 3014.54 3054.44 2989.88H3263.46C3285.35 3014.54 3298.65 3047.01 3298.65 3082.59C3298.65 3118.17 3285.35 3150.64 3263.46 3175.3H3054.44C3032.55 3150.64 3019.25 3118.17 3019.25 3082.59ZM3054.44 2514.9C3032.55 2539.56 3019.25 2572.03 3019.25 2607.61C3019.25 2643.19 3032.55 2675.66 3054.44 2700.32H3263.46C3285.35 2675.66 3298.65 2643.19 3298.65 2607.61C3298.65 2572.03 3285.35 2539.56 3263.46 2514.9H3054.44ZM3019.25 2132.63C3019.25 2097.05 3032.55 2064.58 3054.44 2039.92H3263.46C3285.35 2064.58 3298.65 2097.05 3298.65 2132.63C3298.65 2168.21 3285.35 2200.68 3263.46 2225.34H3054.44C3032.55 2200.68 3019.25 2168.21 3019.25 2132.63ZM3054.44 1564.94C3032.55 1589.6 3019.25 1622.07 3019.25 1657.65C3019.25 1693.23 3032.55 1725.69 3054.44 1750.36H3263.46C3285.35 1725.69 3298.65 1693.23 3298.65 1657.65C3298.65 1622.07 3285.35 1589.6 3263.46 1564.94H3054.44Z" fill="black"/>
</svg>
