<svg width="1750" height="1900" viewBox="0 0 1750 1900" fill="none" xmlns="http://www.w3.org/2000/svg">
<path fill-rule="evenodd" clip-rule="evenodd" d="M0 0H1750V1900H0V0ZM201.846 232.71C201.846 197.134 215.144 164.664 237.04 140H446.051C467.948 164.664 481.246 197.134 481.246 232.71C481.246 268.286 467.948 300.756 446.051 325.42H237.04C215.144 300.756 201.846 268.286 201.846 232.71ZM237.04 614.98C215.144 639.645 201.846 672.115 201.846 707.69C201.846 743.266 215.144 775.736 237.041 800.401H446.051C467.948 775.736 481.246 743.266 481.246 707.69C481.246 672.115 467.948 639.645 446.051 614.98H237.04ZM201.846 1182.67C201.846 1147.1 215.144 1114.63 237.04 1089.96H446.051C467.948 1114.63 481.246 1147.1 481.246 1182.67C481.246 1218.25 467.947 1250.72 446.05 1275.38H237.041C215.144 1250.72 201.846 1218.25 201.846 1182.67ZM237.04 1564.94C215.144 1589.6 201.846 1622.07 201.846 1657.65C201.846 1693.22 215.143 1725.69 237.039 1750.36H446.052C467.948 1725.69 481.246 1693.22 481.246 1657.65C481.246 1622.07 467.948 1589.6 446.051 1564.94H237.04Z" fill="#3E1E1F"/>
</svg>
