<svg width="120" height="120" viewBox="0 0 120 120" fill="none" xmlns="http://www.w3.org/2000/svg">
<path d="M0 0H120V120H0V0Z" fill="black"/>
<path d="M58.4243 111V105.702H47.3843V102.592L58.9199 86.3223H63.688V101.703H67.2769L67.123 105.702H63.688V111H58.4243ZM58.4414 101.703V89.2104H58.937L49.9648 102.609V101.703H58.4414Z" fill="white"/>
<path d="M79.7695 111.479C78.3454 111.479 77.0124 111.194 75.7705 110.624C74.54 110.043 73.452 109.206 72.5063 108.112C71.5721 107.007 70.8429 105.662 70.3188 104.079C69.7948 102.495 69.5327 100.689 69.5327 98.6611C69.5327 96.6217 69.7948 94.8102 70.3188 93.2266C70.8429 91.6315 71.5778 90.2871 72.5234 89.1934C73.4691 88.0996 74.5742 87.2679 75.8389 86.6982C77.1035 86.1286 78.4764 85.8438 79.9575 85.8438C81.3817 85.8438 82.709 86.1343 83.9395 86.7153C85.1813 87.285 86.2694 88.1224 87.2036 89.2275C88.1379 90.3213 88.867 91.66 89.3911 93.2437C89.9266 94.8273 90.1943 96.6331 90.1943 98.6611C90.1943 100.701 89.9323 102.518 89.4082 104.113C88.8841 105.696 88.1493 107.035 87.2036 108.129C86.258 109.223 85.1528 110.054 83.8882 110.624C82.6235 111.194 81.2507 111.479 79.7695 111.479ZM79.9746 109.616C80.5898 109.616 81.1367 109.422 81.6152 109.035C82.1051 108.647 82.5153 108.032 82.8457 107.189C83.1761 106.346 83.4211 105.252 83.5806 103.908C83.7515 102.552 83.8369 100.917 83.8369 99.0029C83.8255 97.0547 83.7287 95.3742 83.5464 93.9614C83.3755 92.5373 83.1134 91.3638 82.7603 90.4409C82.4185 89.5181 81.9969 88.8345 81.4956 88.3901C80.9943 87.9344 80.4189 87.7065 79.7695 87.7065C79.1315 87.7065 78.5732 87.9002 78.0947 88.2876C77.6162 88.675 77.2118 89.2902 76.8813 90.1333C76.5623 90.9764 76.3174 92.0758 76.1465 93.4316C75.9756 94.776 75.8901 96.4053 75.8901 98.3193C75.8901 100.256 75.9813 101.937 76.1636 103.361C76.3459 104.785 76.6079 105.958 76.9497 106.881C77.3029 107.804 77.7301 108.493 78.2314 108.949C78.7441 109.394 79.3252 109.616 79.9746 109.616Z" fill="white"/>
<path d="M103.559 111.479C102.134 111.479 100.801 111.194 99.5596 110.624C98.3291 110.043 97.241 109.206 96.2954 108.112C95.3612 107.007 94.632 105.662 94.1079 104.079C93.5838 102.495 93.3218 100.689 93.3218 98.6611C93.3218 96.6217 93.5838 94.8102 94.1079 93.2266C94.632 91.6315 95.3669 90.2871 96.3125 89.1934C97.2581 88.0996 98.3633 87.2679 99.6279 86.6982C100.893 86.1286 102.265 85.8438 103.747 85.8438C105.171 85.8438 106.498 86.1343 107.729 86.7153C108.97 87.285 110.058 88.1224 110.993 89.2275C111.927 90.3213 112.656 91.66 113.18 93.2437C113.716 94.8273 113.983 96.6331 113.983 98.6611C113.983 100.701 113.721 102.518 113.197 104.113C112.673 105.696 111.938 107.035 110.993 108.129C110.047 109.223 108.942 110.054 107.677 110.624C106.413 111.194 105.04 111.479 103.559 111.479ZM103.764 109.616C104.379 109.616 104.926 109.422 105.404 109.035C105.894 108.647 106.304 108.032 106.635 107.189C106.965 106.346 107.21 105.252 107.37 103.908C107.541 102.552 107.626 100.917 107.626 99.0029C107.615 97.0547 107.518 95.3742 107.335 93.9614C107.165 92.5373 106.903 91.3638 106.549 90.4409C106.208 89.5181 105.786 88.8345 105.285 88.3901C104.783 87.9344 104.208 87.7065 103.559 87.7065C102.921 87.7065 102.362 87.9002 101.884 88.2876C101.405 88.675 101.001 89.2902 100.67 90.1333C100.351 90.9764 100.106 92.0758 99.9355 93.4316C99.7646 94.776 99.6792 96.4053 99.6792 98.3193C99.6792 100.256 99.7703 101.937 99.9526 103.361C100.135 104.785 100.397 105.958 100.739 106.881C101.092 107.804 101.519 108.493 102.021 108.949C102.533 109.394 103.114 109.616 103.764 109.616Z" fill="white"/>
<path d="M32.9712 59.769C31.6724 59.769 30.4077 59.5469 29.6387 59.3247V55.2061C30.4932 55.4453 31.4844 55.6333 32.4072 55.6333C34.646 55.6333 36.1157 54.3345 36.4917 51.6343L37.0728 47.96H31.8774V44.1489H37.5171L37.9614 40.9873C38.5596 36.0825 41.4819 33.6045 46.3696 33.6045C47.771 33.6045 49.0186 33.7754 49.8218 34.0317V38.1504C49.1724 37.8599 48.0615 37.7402 46.9678 37.7402C44.541 37.7402 43.2593 38.9365 42.9004 41.6538L42.5415 44.1489H48.5913V47.96H42.1143L41.4307 52.3008C40.7812 57.4961 37.9272 59.769 32.9712 59.769Z" fill="white"/>
<path d="M71.2524 59H53.5474V54.9497H60.1953V39.1587H59.8877L53.5303 43.3799V38.7998L60.1953 34.3394H64.9463V54.9497H71.2524V59Z" fill="white"/>
<path d="M83.3179 59.3247C81.25 59.3247 79.5581 57.5815 79.5581 55.4795C79.5581 53.3604 81.25 51.6172 83.3179 51.6172C85.3857 51.6172 87.0776 53.3604 87.0776 55.4795C87.0776 57.5815 85.3857 59.3247 83.3179 59.3247Z" fill="white"/>
<path d="M106.902 59V54.3345H95.8789V50.438L103.381 34.3394H108.286L101.04 50.0449V50.3525H107.056V44.1318H111.379V50.438H114.729V54.3345H111.448V59H106.902Z" fill="white"/>
<path d="M43.7686 57.2974L43.7856 68.2349C43.7856 68.7248 43.9281 69.0723 44.2129 69.2773C44.5091 69.4824 45.0902 69.6248 45.9561 69.7046V70.6445H37.7529V69.7046C38.6302 69.6248 39.217 69.4824 39.5132 69.2773C39.8094 69.0723 39.9575 68.7248 39.9575 68.2349V60.1172L37.6846 60.6299V59.7754C38.4251 59.388 39.1429 58.9836 39.8379 58.562C40.5329 58.1405 41.1766 57.7189 41.769 57.2974H43.7686Z" fill="#F7CE46"/>
<path d="M40.8462 85L56.2612 60.3223H58.9443L43.5293 85H40.8462Z" fill="#F7CE46"/>
<path d="M53.8857 74.8145C53.9085 72.6953 54.3358 70.73 55.1675 68.9185C56.0106 67.0955 57.2183 65.5176 58.7905 64.1846C60.3628 62.8402 62.2484 61.8091 64.4473 61.0913C66.6576 60.3735 69.1299 60.0545 71.8643 60.1343L71.8813 61.4673C69.2951 61.661 67.1019 62.3674 65.3018 63.5864C63.5016 64.7941 62.1344 66.4233 61.2002 68.4741C60.2773 70.5249 59.8159 72.889 59.8159 75.5664V77.4634H59.9355C59.9355 78.6711 60.0837 79.742 60.3799 80.6763C60.6761 81.5991 61.109 82.3226 61.6787 82.8467C62.2484 83.3594 62.9263 83.6157 63.7124 83.6157C64.4757 83.6157 65.1309 83.3993 65.6777 82.9663C66.236 82.5334 66.6632 81.9124 66.9595 81.1035C67.2671 80.2946 67.4209 79.3262 67.4209 78.1982C67.4209 76.4779 67.0962 75.1221 66.4468 74.1309C65.7974 73.1283 64.9087 72.627 63.7808 72.627C62.6414 72.627 61.7129 73.0599 60.9951 73.9258C60.2887 74.7917 59.9355 75.9709 59.9355 77.4634H59.4058C59.4058 75.8683 59.6906 74.484 60.2603 73.3105C60.8413 72.137 61.6559 71.2313 62.7041 70.5933C63.7637 69.9552 65.0226 69.6362 66.481 69.6362C67.8595 69.6362 69.0615 69.9382 70.0869 70.542C71.1237 71.1344 71.9269 71.9718 72.4966 73.0542C73.0662 74.1366 73.3511 75.4126 73.3511 76.8823C73.3511 78.2039 73.1061 79.3945 72.6162 80.4541C72.1263 81.5137 71.4484 82.4194 70.5825 83.1714C69.7166 83.9119 68.6969 84.4816 67.5234 84.8804C66.3613 85.2791 65.091 85.4785 63.7124 85.4785C61.7528 85.4785 60.0324 85.0741 58.5513 84.2651C57.0701 83.4448 55.9194 82.2428 55.0991 80.6592C54.2788 79.0755 53.8743 77.1273 53.8857 74.8145Z" fill="#F7CE46"/>
<path d="M86.459 85.4785C85.0348 85.4785 83.7018 85.1937 82.46 84.624C81.2295 84.043 80.1414 83.2056 79.1958 82.1118C78.2616 81.0067 77.5324 79.6623 77.0083 78.0786C76.4842 76.495 76.2222 74.6891 76.2222 72.6611C76.2222 70.6217 76.4842 68.8102 77.0083 67.2266C77.5324 65.6315 78.2673 64.2871 79.2129 63.1934C80.1585 62.0996 81.2637 61.2679 82.5283 60.6982C83.793 60.1286 85.1659 59.8438 86.647 59.8438C88.0711 59.8438 89.3984 60.1343 90.6289 60.7153C91.8708 61.285 92.9588 62.1224 93.8931 63.2275C94.8273 64.3213 95.5565 65.66 96.0806 67.2437C96.616 68.8273 96.8838 70.6331 96.8838 72.6611C96.8838 74.7005 96.6217 76.5177 96.0977 78.1128C95.5736 79.6965 94.8387 81.0352 93.8931 82.1289C92.9474 83.2227 91.8423 84.0544 90.5776 84.624C89.313 85.1937 87.9401 85.4785 86.459 85.4785ZM86.6641 83.6157C87.2793 83.6157 87.8262 83.422 88.3047 83.0347C88.7946 82.6473 89.2048 82.0321 89.5352 81.189C89.8656 80.3459 90.1105 79.2521 90.27 77.9077C90.4409 76.5519 90.5264 74.917 90.5264 73.0029C90.515 71.0547 90.4181 69.3742 90.2358 67.9614C90.0649 66.5373 89.8029 65.3638 89.4497 64.4409C89.1079 63.5181 88.6864 62.8345 88.1851 62.3901C87.6838 61.9344 87.1084 61.7065 86.459 61.7065C85.821 61.7065 85.2627 61.9002 84.7842 62.2876C84.3057 62.675 83.9012 63.2902 83.5708 64.1333C83.2518 64.9764 83.0068 66.0758 82.8359 67.4316C82.665 68.776 82.5796 70.4053 82.5796 72.3193C82.5796 74.2562 82.6707 75.9367 82.853 77.3608C83.0353 78.785 83.2974 79.9585 83.6392 80.8813C83.9924 81.8042 84.4196 82.4935 84.9209 82.9492C85.4336 83.3936 86.0146 83.6157 86.6641 83.6157Z" fill="#F7CE46"/>
<path d="M99.7891 72.9346C99.7891 71.7839 100.108 70.7869 100.746 69.9438C101.396 69.1007 102.33 68.4513 103.549 67.9956C104.779 67.5399 106.249 67.312 107.958 67.312C109.28 67.312 110.447 67.4259 111.461 67.6538C112.487 67.8817 113.273 68.1494 113.82 68.457L113.922 72.9517H112.624C112.305 71.744 111.752 70.804 110.966 70.1318C110.18 69.4596 109.217 69.1235 108.078 69.1235C107.109 69.1235 106.357 69.3115 105.822 69.6875C105.286 70.0635 105.019 70.5705 105.019 71.2085C105.019 71.8351 105.264 72.3307 105.753 72.6953C106.255 73.0485 106.978 73.3618 107.924 73.6353L109.479 74.0625C111.234 74.5638 112.555 75.2588 113.444 76.1475C114.344 77.0361 114.794 78.2153 114.794 79.6851C114.794 80.8472 114.446 81.8555 113.751 82.71C113.056 83.5531 112.088 84.2025 110.846 84.6582C109.604 85.1139 108.169 85.3418 106.54 85.3418C105.639 85.3418 104.774 85.2791 103.942 85.1538C103.11 85.0285 102.341 84.8576 101.635 84.6411C100.94 84.4132 100.347 84.1569 99.8574 83.8721L99.7207 79.1382H101.02C101.225 80.0155 101.572 80.7845 102.062 81.4453C102.563 82.1061 103.179 82.6245 103.908 83.0005C104.637 83.3651 105.457 83.5474 106.369 83.5474C107.383 83.5474 108.169 83.3423 108.727 82.9321C109.285 82.522 109.564 81.9922 109.564 81.3428C109.564 80.7275 109.342 80.2262 108.898 79.8389C108.465 79.4515 107.747 79.1154 106.745 78.8306L105.189 78.4033C103.572 77.9362 102.267 77.2754 101.276 76.4209C100.285 75.5664 99.7891 74.4043 99.7891 72.9346Z" fill="#F7CE46"/>
<path d="M25 20C25 22.7614 22.7614 25 20 25C17.2386 25 15 22.7614 15 20C15 17.2386 17.2386 15 20 15C22.7614 15 25 17.2386 25 20Z" fill="#FF0000"/>
</svg>
