<svg width="3501" height="3800" viewBox="0 0 3501 3800" fill="none" xmlns="http://www.w3.org/2000/svg">
<path fill-rule="evenodd" clip-rule="evenodd" d="M0.5 0H3500.5V3800H0.5V0ZM3019.75 190.8C3019.75 162.744 3042.49 140 3070.55 140H3248.35C3276.41 140 3299.15 162.744 3299.15 190.8V287.32C3299.15 315.376 3276.41 338.12 3248.35 338.12H3070.55C3042.49 338.12 3019.75 315.376 3019.75 287.32V190.8ZM3070.55 1564.94C3042.49 1564.94 3019.75 1587.68 3019.75 1615.74V1712.26C3019.75 1740.32 3042.49 1763.06 3070.55 1763.06H3248.35C3276.41 1763.06 3299.15 1740.32 3299.15 1712.26V1615.74C3299.15 1587.68 3276.41 1564.94 3248.35 1564.94H3070.55ZM3019.75 1140.76C3019.75 1112.7 3042.49 1089.96 3070.55 1089.96H3248.35C3276.41 1089.96 3299.15 1112.7 3299.15 1140.76V1237.28C3299.15 1265.34 3276.41 1288.08 3248.35 1288.08H3070.55C3042.49 1288.08 3019.75 1265.34 3019.75 1237.28V1140.76ZM3070.55 614.98C3042.49 614.98 3019.75 637.724 3019.75 665.78V762.3C3019.75 790.357 3042.49 813.1 3070.55 813.1H3248.35C3276.41 813.1 3299.15 790.357 3299.15 762.3V665.78C3299.15 637.724 3276.41 614.98 3248.35 614.98H3070.55ZM3019.75 2090.72C3019.75 2062.66 3042.49 2039.92 3070.55 2039.92H3248.35C3276.41 2039.92 3299.15 2062.66 3299.15 2090.72V2187.24C3299.15 2215.3 3276.41 2238.04 3248.35 2238.04H3070.55C3042.49 2238.04 3019.75 2215.3 3019.75 2187.24V2090.72ZM3070.55 3464.86C3042.49 3464.86 3019.75 3487.6 3019.75 3515.66V3612.18C3019.75 3640.24 3042.49 3662.98 3070.55 3662.98H3248.35C3276.41 3662.98 3299.15 3640.24 3299.15 3612.18V3515.66C3299.15 3487.6 3276.41 3464.86 3248.35 3464.86H3070.55ZM3019.75 3040.68C3019.75 3012.62 3042.49 2989.88 3070.55 2989.88H3248.35C3276.41 2989.88 3299.15 3012.62 3299.15 3040.68V3137.2C3299.15 3165.26 3276.41 3188 3248.35 3188H3070.55C3042.49 3188 3019.75 3165.26 3019.75 3137.2V3040.68ZM3070.55 2514.9C3042.49 2514.9 3019.75 2537.64 3019.75 2565.7V2662.22C3019.75 2690.28 3042.49 2713.02 3070.55 2713.02H3248.35C3276.41 2713.02 3299.15 2690.28 3299.15 2662.22V2565.7C3299.15 2537.64 3276.41 2514.9 3248.35 2514.9H3070.55ZM202.85 190.8C202.85 162.744 225.594 140 253.65 140H431.45C459.506 140 482.25 162.744 482.25 190.8V287.32C482.25 315.376 459.506 338.12 431.45 338.12H253.65C225.594 338.12 202.85 315.376 202.85 287.32V190.8ZM253.65 1564.94C225.594 1564.94 202.85 1587.68 202.85 1615.74V1712.26C202.85 1740.32 225.594 1763.06 253.65 1763.06H431.45C459.506 1763.06 482.25 1740.32 482.25 1712.26V1615.74C482.25 1587.68 459.506 1564.94 431.45 1564.94H253.65ZM202.85 1140.76C202.85 1112.7 225.594 1089.96 253.65 1089.96H431.45C459.506 1089.96 482.25 1112.7 482.25 1140.76V1237.28C482.25 1265.34 459.506 1288.08 431.45 1288.08H253.65C225.594 1288.08 202.85 1265.34 202.85 1237.28V1140.76ZM253.65 614.98C225.594 614.98 202.85 637.724 202.85 665.78V762.3C202.85 790.357 225.594 813.1 253.65 813.1H431.45C459.506 813.1 482.25 790.357 482.25 762.3V665.78C482.25 637.724 459.506 614.98 431.45 614.98H253.65ZM202.85 2090.72C202.85 2062.66 225.594 2039.92 253.65 2039.92H431.45C459.506 2039.92 482.25 2062.66 482.25 2090.72V2187.24C482.25 2215.3 459.506 2238.04 431.45 2238.04H253.65C225.594 2238.04 202.85 2215.3 202.85 2187.24V2090.72ZM253.65 3464.86C225.594 3464.86 202.85 3487.6 202.85 3515.66V3612.18C202.85 3640.24 225.594 3662.98 253.65 3662.98H431.45C459.506 3662.98 482.25 3640.24 482.25 3612.18V3515.66C482.25 3487.6 459.506 3464.86 431.45 3464.86H253.65ZM202.85 3040.68C202.85 3012.62 225.594 2989.88 253.65 2989.88H431.45C459.506 2989.88 482.25 3012.62 482.25 3040.68V3137.2C482.25 3165.26 459.506 3188 431.45 3188H253.65C225.594 3188 202.85 3165.26 202.85 3137.2V3040.68ZM253.65 2514.9C225.594 2514.9 202.85 2537.64 202.85 2565.7V2662.22C202.85 2690.28 225.594 2713.02 253.65 2713.02H431.45C459.506 2713.02 482.25 2690.28 482.25 2662.22V2565.7C482.25 2537.64 459.506 2514.9 431.45 2514.9H253.65Z" fill="black"/>
</svg>
