<svg width="390" height="424" viewBox="0 0 390 424" fill="none" xmlns="http://www.w3.org/2000/svg">
<path fill-rule="evenodd" clip-rule="evenodd" d="M0 0H390V424H0V0ZM365.824 280H344.176H343.706V280.047C341.068 280.575 339 285.501 339 291.5C339 297.499 341.068 302.425 343.706 302.953V303H344.176H365.824H366.294V302.953C368.932 302.425 371 297.499 371 291.5C371 285.501 368.932 280.575 366.294 280.047V280H365.824ZM344.176 333H365.824H366.294V333.047C368.932 333.575 371 338.501 371 344.5C371 350.499 368.932 355.425 366.294 355.953V356H365.824H344.176H343.706V355.953C341.068 355.425 339 350.499 339 344.5C339 338.501 341.068 333.575 343.706 333.047V333H344.176ZM365.824 15H344.176H343.706V15.0469C341.068 15.5751 339 20.5011 339 26.5C339 32.4989 341.068 37.4249 343.706 37.9531V38H344.176H365.824H366.294V37.9532C368.932 37.4252 371 32.499 371 26.5C371 20.501 368.932 15.5748 366.294 15.0468V15H365.824ZM344.176 227H365.824H366.294V227.047C368.932 227.575 371 232.501 371 238.5C371 244.499 368.932 249.425 366.294 249.953V250H365.824H344.176H343.706V249.953C341.068 249.425 339 244.499 339 238.5C339 232.501 341.068 227.575 343.706 227.047V227H344.176ZM365.824 174H344.176H343.706V174.047C341.068 174.575 339 179.501 339 185.5C339 191.499 341.068 196.425 343.706 196.953V197H344.176H365.824H366.294V196.953C368.932 196.425 371 191.499 371 185.5C371 179.501 368.932 174.575 366.294 174.047V174H365.824ZM344.176 121H365.824H366.294V121.047C368.932 121.575 371 126.501 371 132.5C371 138.499 368.932 143.425 366.294 143.953V144H365.824H344.176H343.706V143.953C341.068 143.425 339 138.499 339 132.5C339 126.501 341.068 121.575 343.706 121.047V121H344.176ZM365.824 68H344.176H343.706V68.0469C341.068 68.5751 339 73.5011 339 79.5C339 85.4989 341.068 90.4249 343.706 90.9531V91H344.176H365.824H366.294V90.9532C368.932 90.4252 371 85.499 371 79.5C371 73.501 368.932 68.5748 366.294 68.0468V68H365.824ZM344.497 386H365.503H365.779V386.014C368.687 386.316 371 391.343 371 397.5C371 403.657 368.687 408.684 365.779 408.986V409H365.503H344.497H343.959V408.946C341.176 408.38 339 403.471 339 397.5C339 391.529 341.176 386.62 343.959 386.054V386H344.497ZM47.8236 280H26.1765H25.7059V280.047C23.0675 280.575 21 285.501 21 291.5C21 297.499 23.0675 302.425 25.7059 302.953V303H26.1765H47.8236H48.294V302.953C50.9324 302.425 53.0001 297.499 53.0001 291.5C53.0001 285.501 50.9324 280.575 48.294 280.047V280H47.8236ZM26.1765 333H47.8236H48.294V333.047C50.9324 333.575 53.0001 338.501 53.0001 344.5C53.0001 350.499 50.9324 355.425 48.294 355.953V356H47.8236H26.1765H25.7059V355.953C23.0675 355.425 21 350.499 21 344.5C21 338.501 23.0675 333.575 25.7059 333.047V333H26.1765ZM47.8236 15H26.1765H25.7059V15.0469C23.0675 15.5751 21 20.5011 21 26.5C21 32.4989 23.0675 37.4249 25.7059 37.9531V38H26.1765H47.8236H48.294V37.9532C50.9324 37.4252 53.0001 32.499 53.0001 26.5C53.0001 20.501 50.9324 15.5748 48.294 15.0468V15H47.8236ZM26.1765 227H47.8236H48.294V227.047C50.9324 227.575 53.0001 232.501 53.0001 238.5C53.0001 244.499 50.9324 249.425 48.294 249.953V250H47.8236H26.1765H25.7059V249.953C23.0675 249.425 21 244.499 21 238.5C21 232.501 23.0675 227.575 25.7059 227.047V227H26.1765ZM47.8236 174H26.1765H25.7059V174.047C23.0675 174.575 21 179.501 21 185.5C21 191.499 23.0675 196.425 25.7059 196.953V197H26.1765H47.8236H48.294V196.953C50.9324 196.425 53.0001 191.499 53.0001 185.5C53.0001 179.501 50.9324 174.575 48.294 174.047V174H47.8236ZM26.1765 121H47.8236H48.294V121.047C50.9324 121.575 53.0001 126.501 53.0001 132.5C53.0001 138.499 50.9324 143.425 48.294 143.953V144H47.8236H26.1765H25.7059V143.953C23.0675 143.425 21 138.499 21 132.5C21 126.501 23.0675 121.575 25.7059 121.047V121H26.1765ZM47.8236 68H26.1765H25.7059V68.0469C23.0675 68.5751 21 73.5011 21 79.5C21 85.4989 23.0675 90.4249 25.7059 90.9531V91H26.1765H47.8236H48.294V90.9532C50.9324 90.4252 53.0001 85.499 53.0001 79.5C53.0001 73.501 50.9324 68.5748 48.294 68.0468V68H47.8236ZM26.4973 386H47.5025H47.7791V386.014C50.6866 386.316 52.9998 391.343 52.9998 397.5C52.9998 403.657 50.6866 408.684 47.7791 408.986V409H47.5025H26.4973H25.9591V408.946C23.1756 408.38 21 403.471 21 397.5C21 391.529 23.1756 386.62 25.9591 386.054V386H26.4973Z" fill="black"/>
</svg>
