<svg width="70" height="49" viewBox="0 0 70 49" fill="none" xmlns="http://www.w3.org/2000/svg">
<path fill-rule="evenodd" clip-rule="evenodd" d="M2 9H39V43H33.2656C32.2569 43 31.4061 42.2489 31.281 41.2481L31.1917 40.5334C31.0644 39.5153 30.8071 38.5178 30.4261 37.5652L29.6604 35.6511C29.2225 34.5563 28.6257 33.5321 27.8891 32.6114L27.8329 32.5412C27.2793 31.8492 26.6508 31.2207 25.9588 30.6671L25.4927 30.2942C24.8327 29.7662 24.1189 29.3094 23.3629 28.9315L22.717 28.6085C21.9083 28.2041 21.0564 27.8925 20.1776 27.6794L18.8934 27.3681C17.9678 27.1437 17.0187 27.0303 16.0662 27.0303H3C1.34315 27.0303 0 25.6872 0 24.0303V11C0 9.89543 0.89543 9 2 9ZM3.7 11H2.8C2.63431 11 2.5 11.1343 2.5 11.3V12.7C2.5 12.8657 2.63431 13 2.8 13H3.7C3.86569 13 4 12.8657 4 12.7V11.3C4 11.1343 3.86569 11 3.7 11ZM5.8 11H6.7C6.86569 11 7 11.1343 7 11.3V12.7C7 12.8657 6.86569 13 6.7 13H5.8C5.63431 13 5.5 12.8657 5.5 12.7V11.3C5.5 11.1343 5.63431 11 5.8 11ZM9.7 11H8.8C8.63431 11 8.5 11.1343 8.5 11.3V12.7C8.5 12.8657 8.63431 13 8.8 13H9.7C9.86569 13 10 12.8657 10 12.7V11.3C10 11.1343 9.86569 11 9.7 11ZM11.8 11H12.7C12.8657 11 13 11.1343 13 11.3V12.7C13 12.8657 12.8657 13 12.7 13H11.8C11.6343 13 11.5 12.8657 11.5 12.7V11.3C11.5 11.1343 11.6343 11 11.8 11ZM15.7 11H14.8C14.6343 11 14.5 11.1343 14.5 11.3V12.7C14.5 12.8657 14.6343 13 14.8 13H15.7C15.8657 13 16 12.8657 16 12.7V11.3C16 11.1343 15.8657 11 15.7 11ZM17.8 11H18.7C18.8657 11 19 11.1343 19 11.3V12.7C19 12.8657 18.8657 13 18.7 13H17.8C17.6343 13 17.5 12.8657 17.5 12.7V11.3C17.5 11.1343 17.6343 11 17.8 11ZM21.7 11H20.8C20.6343 11 20.5 11.1343 20.5 11.3V12.7C20.5 12.8657 20.6343 13 20.8 13H21.7C21.8657 13 22 12.8657 22 12.7V11.3C22 11.1343 21.8657 11 21.7 11ZM23.8 11H24.7C24.8657 11 25 11.1343 25 11.3V12.7C25 12.8657 24.8657 13 24.7 13H23.8C23.6343 13 23.5 12.8657 23.5 12.7V11.3C23.5 11.1343 23.6343 11 23.8 11ZM27.7 11H26.8C26.6343 11 26.5 11.1343 26.5 11.3V12.7C26.5 12.8657 26.6343 13 26.8 13H27.7C27.8657 13 28 12.8657 28 12.7V11.3C28 11.1343 27.8657 11 27.7 11ZM29.8 11H30.7C30.8657 11 31 11.1343 31 11.3V12.7C31 12.8657 30.8657 13 30.7 13H29.8C29.6343 13 29.5 12.8657 29.5 12.7V11.3C29.5 11.1343 29.6343 11 29.8 11ZM33.7 11H32.8C32.6343 11 32.5 11.1343 32.5 11.3V12.7C32.5 12.8657 32.6343 13 32.8 13H33.7C33.8657 13 34 12.8657 34 12.7V11.3C34 11.1343 33.8657 11 33.7 11ZM32.8 39H33.7C33.8657 39 34 39.1343 34 39.3V40.7C34 40.8657 33.8657 41 33.7 41H32.8C32.6343 41 32.5 40.8657 32.5 40.7V39.3C32.5 39.1343 32.6343 39 32.8 39ZM36.7 11H35.8C35.6343 11 35.5 11.1343 35.5 11.3V12.7C35.5 12.8657 35.6343 13 35.8 13H36.7C36.8657 13 37 12.8657 37 12.7V11.3C37 11.1343 36.8657 11 36.7 11ZM35.8 39H36.7C36.8657 39 37 39.1343 37 39.3V40.7C37 40.8657 36.8657 41 36.7 41H35.8C35.6343 41 35.5 40.8657 35.5 40.7V39.3C35.5 39.1343 35.6343 39 35.8 39Z" fill="#805338"/>
<path d="M43.5 45V7H40.5V45H43.5Z" fill="#F7A646"/>
<path d="M65.5 45V7H43.5V45H65.5Z" fill="#F7CE46"/>
<path d="M67.5 5.1V46.9C67.5 46.9552 67.4552 47 67.4 47H47H41.6C41.5448 47 41.5 46.9552 41.5 46.9V44.0721C41.5 44.029 41.4725 43.9908 41.4316 43.9772L38.5684 43.0228C38.5275 43.0092 38.5 42.971 38.5 42.9279V8.07208C38.5 8.02903 38.5275 7.99082 38.5684 7.97721L41.4316 7.02279C41.4725 7.00918 41.5 6.97097 41.5 6.92792V5.1C41.5 5.04477 41.5448 5 41.6 5H47H67.4C67.4552 5 67.5 5.04477 67.5 5.1Z" stroke="#333333" stroke-width="4"/>
<path d="M59.4 1H49.6C49.5448 1 49.5 1.04477 49.5 1.1V5H59.5V1.1C59.5 1.04477 59.4552 1 59.4 1Z" fill="#333333" stroke="#333333" stroke-width="2"/>
<path d="M58.0908 11.3682H59.1357V12.1934C59.1357 12.8965 59.5215 13.3555 60.1123 13.3555C60.6982 13.3555 61.0693 12.9062 61.0693 12.1982C61.0693 11.5049 60.6738 11.041 60.0537 10.9971V9.76172C61.377 9.81055 62.1875 10.7529 62.1875 12.2422C62.1875 13.6729 61.4307 14.6445 60.3174 14.6445C59.4873 14.6445 58.877 14.1709 58.7207 13.3994H58.6328C58.5205 14.3516 57.8955 14.918 56.9629 14.918C55.7129 14.918 54.8584 13.8389 54.8584 12.2617C54.8584 10.7236 55.7031 9.68848 57.0215 9.625V10.9092C56.4209 10.958 56.04 11.4658 56.04 12.2227C56.04 13.0283 56.4355 13.541 57.0557 13.541C57.6855 13.541 58.0908 13.0186 58.0908 12.208V11.3682ZM54.8584 18.3701C54.8584 16.8955 55.7275 15.8701 57.002 15.8311V17.1689C56.4355 17.252 56.0547 17.7451 56.0547 18.3994C56.0547 19.1562 56.5674 19.6641 57.3291 19.6641C58.0957 19.6641 58.6133 19.1514 58.6133 18.3994C58.6133 17.8916 58.3984 17.5059 57.9736 17.252V15.9141L62.0459 16.2461V20.5527H60.8789V17.3447L58.999 17.1934V17.2812C59.4434 17.584 59.6875 18.1162 59.6875 18.7754C59.6875 20.0742 58.7354 20.9824 57.3633 20.9824C55.8594 20.9824 54.8584 19.9326 54.8584 18.3701ZM59.1797 27.3105L55 27.3105L55 26.1777L58.7305 26.1777C59.1162 26.1777 59.3457 25.9873 59.3457 25.6797C59.3457 25.3623 59.0918 25.1523 58.6963 25.1523L55 25.1523V24.0342H58.7305C59.1162 24.0342 59.3457 23.8535 59.3457 23.5361C59.3457 23.2139 59.0918 23.0039 58.6963 23.0039H55V21.8711H60.3857V23.0381H59.541V23.1797C60.1611 23.3018 60.498 23.668 60.498 24.2002C60.498 24.6885 60.166 25.0303 59.585 25.1426V25.2842C60.1611 25.3965 60.498 25.7725 60.498 26.2852C60.498 26.9492 60.0342 27.3105 59.1797 27.3105ZM59.1797 33.4922H55V32.3594H58.7305C59.1162 32.3594 59.3457 32.1689 59.3457 31.8613C59.3457 31.5439 59.0918 31.334 58.6963 31.334L55 31.334V30.2158L58.7305 30.2158C59.1162 30.2158 59.3457 30.0352 59.3457 29.7178C59.3457 29.3955 59.0918 29.1855 58.6963 29.1855L55 29.1855V28.0527L60.3857 28.0527V29.2197H59.541V29.3613C60.1611 29.4834 60.498 29.8496 60.498 30.3818C60.498 30.8701 60.166 31.2119 59.585 31.3242V31.4658C60.1611 31.5781 60.498 31.9541 60.498 32.4668C60.498 33.1309 60.0342 33.4922 59.1797 33.4922Z" fill="#333333"/>
</svg>
