<svg width="59" height="42" viewBox="0 0 59 42" fill="none" xmlns="http://www.w3.org/2000/svg">
<path d="M49 2.1V2.9C49 2.95523 48.9552 3 48.9 3L46 3L43.1 3C43.0448 3 43 2.95523 43 2.9V2.1C43 2.04477 43.0448 2 43.1 2L46 2L48.9 2C48.9552 2 49 2.04477 49 2.1Z" fill="black" stroke="#34251C" stroke-width="4"/>
<path fill-rule="evenodd" clip-rule="evenodd" d="M34.5 5L2.00001 5C0.895438 5 7.2505e-06 5.89543 6.78311e-06 7L0 20.0303C0 21.6872 1.34315 23.0303 3 23.0303H11.5662C12.5187 23.0303 13.4678 23.1437 14.3934 23.3681L15.6777 23.6794C16.5564 23.8925 17.4083 24.2041 18.217 24.6085L18.8629 24.9315C19.6189 25.3094 20.3328 25.7662 20.9927 26.2942L21.4588 26.6671C22.1508 27.2207 22.7794 27.8492 23.3329 28.5412L23.3891 28.6114C24.1257 29.5321 24.7225 30.5563 25.1604 31.6511L25.9261 33.5652C26.3071 34.5178 26.5644 35.5153 26.6917 36.5334L26.781 37.2481C26.9061 38.2489 27.7569 39 28.7656 39H34.5L34.5 5ZM1.30001 7H2.20001C2.36569 7 2.50001 7.13431 2.50001 7.3V8.7C2.50001 8.86569 2.36569 9 2.20001 9H1.30001C1.13432 9 1.00001 8.86569 1.00001 8.7L1.00001 7.3C1.00001 7.13431 1.13432 7 1.30001 7ZM5.20001 7H4.30001C4.13432 7 4.00001 7.13431 4.00001 7.3L4.00001 8.7C4.00001 8.86569 4.13432 9 4.30001 9H5.20001C5.36569 9 5.50001 8.86569 5.50001 8.7L5.50001 7.3C5.50001 7.13431 5.36569 7 5.20001 7ZM7.30001 7L8.20001 7C8.36569 7 8.50001 7.13431 8.50001 7.3V8.7C8.50001 8.86569 8.36569 9 8.20001 9H7.30001C7.13432 9 7.00001 8.86569 7.00001 8.7L7.00001 7.3C7.00001 7.13431 7.13432 7 7.30001 7ZM11.2 7H10.3C10.1343 7 10 7.13431 10 7.3V8.7C10 8.86569 10.1343 9 10.3 9H11.2C11.3657 9 11.5 8.86569 11.5 8.7V7.3C11.5 7.13431 11.3657 7 11.2 7ZM13.3 7H14.2C14.3657 7 14.5 7.13431 14.5 7.3V8.7C14.5 8.86569 14.3657 9 14.2 9H13.3C13.1343 9 13 8.86569 13 8.7V7.3C13 7.13431 13.1343 7 13.3 7ZM17.2 7H16.3C16.1343 7 16 7.13431 16 7.3V8.7C16 8.86569 16.1343 9 16.3 9H17.2C17.3657 9 17.5 8.86569 17.5 8.7V7.3C17.5 7.13431 17.3657 7 17.2 7ZM19.3 7L20.2 7C20.3657 7 20.5 7.13431 20.5 7.3V8.7C20.5 8.86569 20.3657 9 20.2 9H19.3C19.1343 9 19 8.86569 19 8.7V7.3C19 7.13431 19.1343 7 19.3 7ZM23.2 7H22.3C22.1343 7 22 7.13431 22 7.3V8.7C22 8.86569 22.1343 9 22.3 9H23.2C23.3657 9 23.5 8.86569 23.5 8.7V7.3C23.5 7.13431 23.3657 7 23.2 7ZM25.3 7H26.2C26.3657 7 26.5 7.13431 26.5 7.3V8.7C26.5 8.86569 26.3657 9 26.2 9H25.3C25.1343 9 25 8.86569 25 8.7V7.3C25 7.13431 25.1343 7 25.3 7ZM29.2 7H28.3C28.1343 7 28 7.13431 28 7.3V8.7C28 8.86569 28.1343 9 28.3 9H29.2C29.3657 9 29.5 8.86569 29.5 8.7V7.3C29.5 7.13431 29.3657 7 29.2 7ZM28.3 35H29.2C29.3657 35 29.5 35.1343 29.5 35.3V36.7C29.5 36.8657 29.3657 37 29.2 37H28.3C28.1343 37 28 36.8657 28 36.7V35.3C28 35.1343 28.1343 35 28.3 35ZM32.2 7H31.3C31.1343 7 31 7.13431 31 7.3V8.7C31 8.86569 31.1343 9 31.3 9H32.2C32.3657 9 32.5 8.86569 32.5 8.7V7.3C32.5 7.13431 32.3657 7 32.2 7ZM31.3 35H32.2C32.3657 35 32.5 35.1343 32.5 35.3V36.7C32.5 36.8657 32.3657 37 32.2 37H31.3C31.1343 37 31 36.8657 31 36.7V35.3C31 35.1343 31.1343 35 31.3 35Z" fill="#805338"/>
<path d="M56 36L56 8C56 6.34315 54.6569 5 53 5L38 5C36.3431 5 35 6.34315 35 8V36C35 37.6569 36.3431 39 38 39H53C54.6569 39 56 37.6569 56 36Z" fill="#F7CE46"/>
<path d="M42 39L42 5L35 5L35 39H42Z" fill="#F7A646"/>
<path d="M57 9V35C57 37.7614 54.7614 40 52 40H39.5H39C36.2386 40 34 37.7614 34 35L34 9C34 6.23858 36.2386 4 39 4H39.5L52 4C54.7614 4 57 6.23858 57 9Z" stroke="#34251C" stroke-width="4"/>
</svg>
