<svg width="1750" height="1900" viewBox="0 0 1750 1900" fill="none" xmlns="http://www.w3.org/2000/svg">
<path fill-rule="evenodd" clip-rule="evenodd" d="M0 0H1750V1900H0V0ZM202.35 190.8C202.35 162.744 225.094 140 253.15 140H430.95C459.006 140 481.75 162.744 481.75 190.8V287.32C481.75 315.376 459.006 338.12 430.95 338.12H253.15C225.094 338.12 202.35 315.376 202.35 287.32V190.8ZM253.15 1564.94C225.094 1564.94 202.35 1587.68 202.35 1615.74V1712.26C202.35 1740.32 225.094 1763.06 253.15 1763.06H430.95C459.006 1763.06 481.75 1740.32 481.75 1712.26V1615.74C481.75 1587.68 459.006 1564.94 430.95 1564.94H253.15ZM202.35 1140.76C202.35 1112.7 225.094 1089.96 253.15 1089.96H430.95C459.006 1089.96 481.75 1112.7 481.75 1140.76V1237.28C481.75 1265.34 459.006 1288.08 430.95 1288.08H253.15C225.094 1288.08 202.35 1265.34 202.35 1237.28V1140.76ZM253.15 614.98C225.094 614.98 202.35 637.724 202.35 665.78V762.3C202.35 790.357 225.094 813.1 253.15 813.1H430.95C459.006 813.1 481.75 790.357 481.75 762.3V665.78C481.75 637.724 459.006 614.98 430.95 614.98H253.15Z" fill="#3E1E1F"/>
</svg>
